<svg width="95" height="95" viewBox="0 0 95 95" fill="none" xmlns="http://www.w3.org/2000/svg">
<path d="M58.3591 7.74259C58.6239 7.79481 58.8887 7.84695 59.1535 7.899C59.8667 8.03949 60.5796 8.18131 61.2925 8.32345C61.8896 8.44236 62.4868 8.56061 63.084 8.67886C64.4931 8.95789 65.9019 9.23798 67.3107 9.51878C68.7608 9.80781 70.2112 10.0952 71.6619 10.3817C72.9112 10.6285 74.1604 10.8762 75.4094 11.1248C76.1537 11.2729 76.898 11.4207 77.6426 11.5676C78.3423 11.7056 79.0418 11.8449 79.7411 11.9852C79.9968 12.0362 80.2526 12.0869 80.5085 12.1371C84.1249 12.847 84.1249 12.847 85.3517 14.1016C86.5984 16.1369 86.3415 17.9764 85.8707 20.2321C85.8272 20.4474 85.7838 20.6628 85.7391 20.8847C85.5961 21.5915 85.4507 22.2979 85.3053 23.0043C85.2051 23.4976 85.1054 23.9911 85.0058 24.4846C84.7171 25.9129 84.4257 27.3406 84.1341 28.7683C83.7626 30.5875 83.3923 32.4069 83.0244 34.2268C82.9008 34.8379 82.7766 35.4489 82.651 36.0596C82.5113 36.7402 82.3731 37.421 82.2351 38.1018C82.1935 38.3024 82.1518 38.5031 82.1089 38.7098C81.9151 39.6744 81.7382 40.5783 81.8263 41.5626C82.1952 42.1085 82.1952 42.1085 82.7193 42.5947C82.9082 42.7885 83.0964 42.983 83.2839 43.1781C83.3809 43.2783 83.4778 43.3784 83.5777 43.4816C86.2408 46.3096 88.2402 49.5002 88.1858 53.4562C88.1091 55.7434 87.7567 58.0257 87.4685 60.2943C87.3135 61.5171 87.1623 62.7404 87.0115 63.9637C86.9953 64.0948 86.9791 64.2258 86.9624 64.3608C86.083 71.168 86.083 71.168 86.9818 77.9124C87.2464 78.9393 87.211 79.5508 86.7122 80.4984C86.2996 81.1662 85.8594 81.7839 85.3517 82.3829C85.263 82.4893 85.1743 82.5958 85.0828 82.7054C82.4224 85.6205 78.0315 87.1623 74.1921 87.4339C70.0897 87.5816 66.0606 87.1184 62.9006 84.2384C62.6148 83.6669 62.6735 83.2016 62.715 82.5684C62.8978 82.1343 63.0833 81.7013 63.2717 81.2696C63.4171 80.3178 63.1328 79.8471 62.5928 79.1065C62.4992 78.9822 62.4056 78.858 62.3091 78.7299C60.7953 76.6247 59.8361 74.6231 59.9318 71.9923C59.7978 71.9731 59.6638 71.9538 59.5257 71.9341C57.6942 71.6627 55.8791 71.3205 54.0617 70.9681C53.9004 70.9369 53.7391 70.9056 53.573 70.8734C52.7213 70.7082 51.8698 70.5422 51.0184 70.3758C50.3189 70.2391 49.6192 70.1041 48.9191 69.9704C48.0664 69.8076 47.2144 69.6421 46.3626 69.4747C46.0407 69.4118 45.7185 69.3499 45.3962 69.289C41.207 68.495 41.207 68.495 39.9855 66.9941C38.9858 65.4804 39.0094 63.9934 39.3457 62.262C39.3748 62.1205 39.404 61.9791 39.434 61.8333C39.4647 61.6778 39.4954 61.5222 39.527 61.362C39.6303 60.8409 39.7358 60.3204 39.8413 59.7998C39.9172 59.4191 39.993 59.0384 40.0686 58.6577C40.2773 57.6097 40.488 56.5621 40.6989 55.5145C40.9237 54.3967 41.1466 53.2785 41.3698 52.1603C41.7664 50.1739 42.1643 48.1877 42.5628 46.2017C43.231 42.8715 43.8966 39.5407 44.562 36.2099C44.8881 34.5772 45.2144 32.9445 45.5406 31.3118C45.5728 31.1507 45.605 30.9896 45.6382 30.8236C46.4403 26.8101 47.2435 22.7968 48.0471 18.7837C48.1004 18.5173 48.1538 18.2509 48.2071 17.9845C48.3325 17.3579 48.458 16.7314 48.5839 16.105C48.7949 15.0535 49.0047 14.0018 49.2082 12.9488C49.2417 12.7766 49.2753 12.6044 49.3098 12.4269C49.3696 12.1193 49.4286 11.8116 49.4867 11.5036C49.7742 10.0298 50.1862 8.85675 51.3619 7.88583C53.5112 6.47031 56.0031 7.27073 58.3591 7.74259ZM53.0666 10.5763C52.4522 11.6995 52.2996 13.1497 52.0575 14.393C52.0156 14.6034 51.9738 14.8139 51.9306 15.0307C51.7915 15.7314 51.6538 16.4324 51.5162 17.1335C51.417 17.6353 51.3175 18.1372 51.218 18.639C50.9772 19.8543 50.7375 21.0699 50.4982 22.2855C50.22 23.6985 49.9406 25.1112 49.6612 26.5239C48.9959 29.8872 48.3331 33.2509 47.6707 36.6148C47.5028 37.4674 47.3348 38.32 47.1668 39.1727C46.2574 43.7885 45.3484 48.4044 44.4418 53.0208C44.3969 53.2491 44.3521 53.4774 44.3059 53.7127C44.0979 54.7718 43.8899 55.8309 43.6821 56.89C43.645 57.079 43.6079 57.2679 43.5696 57.4626C43.498 57.8275 43.4267 58.1924 43.3556 58.5574C43.1846 59.4321 43.0084 60.3052 42.8217 61.1767C42.7683 61.4304 42.7683 61.4304 42.7137 61.6893C42.6468 62.0054 42.5784 62.3211 42.5081 62.6365C42.3361 63.4558 42.2437 64.1197 42.4904 64.9415C43.0633 65.6382 43.783 65.7058 44.6314 65.8679C44.7932 65.9006 44.9549 65.9332 45.1216 65.9669C45.6568 66.0743 46.1925 66.1787 46.7283 66.2831C47.1001 66.357 47.4719 66.4311 47.8437 66.5053C48.6232 66.6605 49.403 66.8144 50.1829 66.9671C51.1831 67.1629 52.1827 67.3612 53.1822 67.5604C53.9501 67.7134 54.7182 67.8655 55.4863 68.0174C55.8549 68.0903 56.2236 68.1633 56.5922 68.2365C57.1073 68.3385 57.6225 68.4395 58.1379 68.5402C58.2905 68.5706 58.4431 68.6009 58.6003 68.6322C59.2461 68.7575 59.828 68.838 60.4884 68.838C61.2519 66.2329 60.8201 62.8177 59.9318 60.3028C59.8735 60.1304 59.8735 60.1304 59.814 59.9546C59.0775 57.8189 57.9611 55.8747 56.8389 53.923C54.796 50.3511 54.796 50.3511 55.1076 48.4278C55.5259 47.1504 56.2952 46.3589 57.3805 45.5866C58.9672 44.8548 61.0934 45.0795 62.6918 45.6562C66.8924 47.5202 68.633 50.85 70.5428 54.806C71.7172 57.3051 71.7172 57.3051 73.2912 59.5606C73.3855 59.4824 73.4797 59.4041 73.5769 59.3234C73.8018 59.1367 74.0266 58.9501 74.2515 58.7634C75.0817 57.9883 75.2975 57.2402 75.5082 56.1421C75.5564 55.9033 75.5564 55.9033 75.6057 55.6597C75.7131 55.1256 75.8177 54.5911 75.9223 54.0565C75.9987 53.6736 76.0752 53.2908 76.1519 52.908C76.36 51.8675 76.5655 50.8265 76.7706 49.7854C76.9856 48.6957 77.2028 47.6064 77.4196 46.517C77.7837 44.6863 78.1463 42.8554 78.508 41.0242C78.9257 38.9092 79.3453 36.7946 79.7661 34.6802C80.2143 32.428 80.6612 30.1756 81.1077 27.923C81.2362 27.2749 81.365 26.6268 81.4938 25.9788C81.6966 24.9582 81.8985 23.9376 82.0996 22.9167C82.1735 22.5428 82.2476 22.169 82.322 21.7952C82.4239 21.2834 82.5247 20.7713 82.6252 20.2592C82.6546 20.1128 82.684 19.9664 82.7143 19.8155C82.8603 19.0652 82.9814 18.3141 83.0755 17.5554C83.0942 17.4051 83.113 17.2547 83.1323 17.0998C83.1604 16.6426 83.1604 16.6426 82.7501 16.1408C82.1398 15.7331 81.6805 15.5746 80.9624 15.4309C80.7268 15.3828 80.4912 15.3348 80.2485 15.2852C80.1267 15.2623 80.0049 15.2394 79.8795 15.2157C79.5072 15.1454 79.1365 15.0694 78.7655 14.9924C77.3278 14.6802 77.3278 14.6802 75.8888 14.8438C75.8544 15.0358 75.8544 15.0358 75.8193 15.2316C75.5054 16.6617 74.9757 17.6081 73.8478 18.5548C71.9795 19.7482 69.4234 19.0004 67.4063 18.5973C66.9595 18.5084 66.512 18.4238 66.0643 18.3395C62.2745 17.6083 62.2745 17.6083 61.2422 16.3514C61.1411 16.2332 61.0399 16.1151 60.9356 15.9934C60.2966 14.9986 60.2529 14.0608 60.2797 12.9188C60.2814 12.7822 60.2831 12.6456 60.2848 12.5049C60.2891 12.1713 60.2958 11.8376 60.3029 11.504C58.836 11.0876 57.3486 10.7932 55.8498 10.5183C55.6614 10.482 55.473 10.4457 55.279 10.4083C55.0999 10.3764 54.9209 10.3445 54.7365 10.3117C54.5758 10.2822 54.415 10.2527 54.2494 10.2223C53.7247 10.2019 53.5061 10.2948 53.0666 10.5763ZM63.4572 12.0606C63.1033 13.7539 63.1033 13.7539 63.5949 14.4648C64.4465 14.9988 65.2835 15.1597 66.2636 15.3425C66.4459 15.3794 66.6281 15.4164 66.8159 15.4545C67.3655 15.5648 67.9159 15.6691 68.467 15.7716C68.653 15.8067 68.839 15.8417 69.0307 15.8779C70.5031 16.1671 70.5031 16.1671 71.9924 16.1427C72.8151 15.4465 72.7579 15.0515 72.9201 13.9161C69.7973 13.3038 66.6746 12.6915 63.4572 12.0606ZM80.7131 45.4591C80.4739 46.6045 80.2363 47.7502 79.9996 48.8962C79.9189 49.2859 79.8379 49.6755 79.7566 50.0651C79.6397 50.6254 79.5239 51.186 79.4084 51.7466C79.3719 51.9204 79.3354 52.0942 79.2977 52.2733C79.2643 52.4367 79.2309 52.6 79.1964 52.7684C79.1519 52.9828 79.1519 52.9828 79.1065 53.2016C79.0371 53.6634 79.0073 54.0848 79.0431 54.5509C79.1656 54.6312 79.2881 54.7116 79.4142 54.7944C79.7853 55.1075 79.7853 55.1075 79.9013 55.7685C79.8433 56.977 79.0631 58.0345 78.2546 58.888C77.7139 59.699 77.6744 60.648 77.5588 61.6016C77.675 61.6354 77.7912 61.6691 77.911 61.7038C78.0627 61.7505 78.2143 61.7971 78.3705 61.8452C78.5212 61.8904 78.6719 61.9356 78.8271 61.9822C79.2287 62.1583 79.2287 62.1583 79.5998 62.7149C79.6836 63.8881 79.6836 63.8881 79.2287 64.5704C77.5309 65.1363 75.7025 64.4194 74.1363 63.734C72.2349 62.7676 70.7978 61.6362 69.7114 59.7839C69.6039 59.6025 69.6039 59.6025 69.4942 59.4175C68.6323 57.9412 67.8959 56.403 67.1579 54.8622C65.7032 51.8348 64.1688 49.4241 60.8595 48.2423C59.8854 47.95 59.3377 48.134 58.4474 48.6134C58.0328 49.1235 58.0328 49.1235 58.0771 49.6389C58.3516 50.5962 58.8576 51.3902 59.3636 52.2431C62.8324 58.2416 64.7292 64.0672 63.2485 70.995C62.9002 72.6688 63.1307 74.1942 64.0366 75.6719C64.4223 76.2454 64.8311 76.7992 65.2496 77.3492C66.4509 78.9556 66.6043 80.3474 66.3332 82.3133C66.3026 82.4587 66.2719 82.6042 66.2404 82.754C66.5057 82.8996 66.7729 83.0419 67.0406 83.1831C67.1891 83.2627 67.3376 83.3424 67.4907 83.4244C69.1109 84.1133 70.6458 84.3364 72.3982 84.3195C72.6006 84.3184 72.803 84.3173 73.0115 84.3161C74.6887 84.2839 76.1567 84.0397 77.7443 83.4962C77.9182 83.4383 78.0921 83.3804 78.2712 83.3208C80.3682 82.5518 82.8792 81.1281 83.8674 79.043C83.8494 78.3366 83.6963 77.6669 83.5426 76.9788C82.7804 73.511 83.1505 70.0605 83.5311 66.565C83.5728 66.168 83.6143 65.771 83.6559 65.374C83.8584 63.4591 84.0774 61.5468 84.3211 59.6367C84.3425 59.4685 84.3639 59.3002 84.386 59.1268C84.4868 58.3411 84.5901 57.5559 84.6977 56.7711C85.2079 52.9777 84.8816 50.4587 82.5685 47.3145C82.049 46.6628 81.4974 46.0392 80.8986 45.4591C80.8374 45.4591 80.7761 45.4591 80.7131 45.4591Z" fill="#828282"/>
<path d="M41.972 11.82C42.2423 11.8179 42.5125 11.814 42.7827 11.8086C43.1777 11.8007 43.5724 11.7977 43.9675 11.7958C44.2005 11.7931 44.4336 11.7904 44.6737 11.7876C45.3777 11.8899 45.5914 12.0581 46.0157 12.617C46.151 13.1263 46.1194 13.5864 46.0157 14.1014C45.6648 14.6277 45.4421 14.8033 44.8278 14.9501C44.0714 15.0396 43.3254 15.0637 42.5643 15.0829C32.8141 15.3319 22.8728 18.2008 15.4005 24.6775C15.2424 24.8129 15.0843 24.9483 14.9214 25.0878C11.4148 28.1581 8.96929 31.9103 7.60754 36.367C7.54822 36.5507 7.4889 36.7344 7.42779 36.9236C6.06854 41.9579 7.22404 47.3419 9.70146 51.8094C11.3075 54.5629 13.5284 57.1084 16.0499 59.0617C16.1617 59.1484 16.2735 59.2351 16.3887 59.3244C19.9349 62.0415 23.7896 64.0557 28.0177 65.4978C28.1635 65.5482 28.3094 65.5986 28.4596 65.6505C30.01 66.1767 31.5652 66.5904 33.1731 66.901C33.3615 66.9375 33.3615 66.9375 33.5538 66.9748C34.1814 67.0952 34.8095 67.2109 35.4392 67.3201C35.6689 67.3621 35.8987 67.4042 36.1354 67.4475C36.3411 67.4832 36.5468 67.5189 36.7587 67.5556C37.3746 67.7495 37.6374 67.9656 38.0372 68.4666C38.25 69.1334 38.2815 69.444 38.0024 70.0901C37.6448 70.5341 37.4489 70.6775 36.9239 70.8787C28.3548 71.0617 18.2943 65.8181 12.1969 60.0503C11.9458 59.8078 11.9458 59.8078 11.6896 59.5603C11.5298 59.4101 11.37 59.2599 11.2054 59.1052C6.9662 55.024 3.82621 49.102 3.64872 43.1503C3.64312 42.6478 3.64001 42.146 3.64147 41.6435C3.64157 41.5123 3.64167 41.3812 3.64178 41.2461C3.64913 39.1661 3.81405 37.2413 4.45324 35.2537C4.5114 35.0602 4.5114 35.0602 4.57075 34.8629C5.82722 30.716 8.14884 27.2347 11.1329 24.1209C11.28 23.9621 11.4271 23.8033 11.5787 23.6396C18.2345 16.6735 28.12 13.2172 37.4806 12.0603C37.6167 12.0427 37.7528 12.0251 37.8931 12.0069C39.2495 11.8494 40.608 11.8276 41.972 11.82Z" fill="#828282"/>
<path d="M33.2129 26.533C33.9091 27.2388 34.2828 28.0723 34.674 28.9683C34.738 29.1141 34.8019 29.2598 34.8677 29.41C38.0681 36.8901 38.1451 45.1497 35.2707 52.7475C34.0731 55.7314 34.0731 55.7314 33.2129 56.5916C32.5502 56.783 32.2246 56.834 31.5893 56.5452C31.0729 56.1436 30.8272 55.8402 30.729 55.1862C30.8312 54.2812 31.1979 53.5511 31.5777 52.7299C32.3398 51.0138 32.9544 49.3236 33.3984 47.4998C33.487 47.1529 33.487 47.1529 33.5774 46.7989C34.9241 40.9212 33.7623 34.3771 30.9986 29.0734C30.7686 28.4928 30.7384 28.0802 30.8008 27.4607C31.499 26.457 32.0652 26.3508 33.2129 26.533Z" fill="#828282"/>
<path d="M27.0898 28.9455C28.1106 29.5504 28.4233 30.4322 28.8525 31.4852C28.9246 31.6584 28.9967 31.8315 29.071 32.0099C31.6806 38.4073 31.6318 45.0374 28.9688 51.4135C27.9675 53.7002 27.9675 53.7002 26.9042 54.1799C26.2504 54.1666 25.8959 54.0634 25.3503 53.7045C24.9305 53.0748 24.9632 52.496 25.0487 51.7678C25.2278 51.2765 25.41 50.8405 25.6402 50.3762C28.1746 44.9284 28.1838 39.5376 26.2145 33.9238C25.9779 33.279 25.7097 32.6725 25.3916 32.0636C24.9806 31.2594 24.847 30.5807 25.0487 29.6877C25.6478 28.9653 26.1688 28.792 27.0898 28.9455Z" fill="#828282"/>
<path d="M21.7087 31.7286C23.7456 33.6313 24.6123 37.7274 24.7355 40.3761C24.8412 44.0715 24.2218 48.0256 22.0001 51.1081C21.7087 51.3965 21.7087 51.3965 21.0477 51.6285C20.3438 51.5773 20.0231 51.4736 19.4822 51.0255C19.1349 50.5677 19.1043 50.3556 19.1582 49.781C19.3143 49.0921 19.5919 48.5174 19.9113 47.8943C21.545 44.5082 21.9373 40.7304 20.7394 37.1232C20.4083 36.238 20.0081 35.3775 19.5851 34.5327C19.1863 33.71 19.0083 33.1998 19.2966 32.2852C19.9416 31.435 20.7376 31.4323 21.7087 31.7286Z" fill="#828282"/>
<path d="M15.586 34.7783C16.3128 34.9146 16.5637 35.0793 17.0703 35.6249C17.4425 36.22 17.7285 36.8329 17.9981 37.4803C18.0581 37.6227 18.1181 37.765 18.18 37.9116C19.0368 40.4096 18.8612 43.6102 17.8125 46.0155C17.7345 46.1951 17.6566 46.3748 17.5762 46.5598C16.9978 47.7957 16.9978 47.7957 16.3281 48.2421C15.0471 48.3641 15.0471 48.3641 14.3799 47.9637C13.9797 47.2967 13.9576 46.7594 14.1016 46.0155C14.3123 45.4286 14.5502 44.8639 14.8083 44.2963C15.6228 42.4269 15.3731 40.1677 14.6713 38.3066C14.5462 38.0199 14.4126 37.7365 14.2676 37.4593C13.9942 36.8827 14.0247 36.4367 14.1016 35.8104C14.5562 35.182 14.8185 34.9222 15.586 34.7783Z" fill="#828282"/>
</svg>
