<svg width="228" height="248" viewBox="0 0 228 248" fill="none" xmlns="http://www.w3.org/2000/svg">
<path d="M183.308 3.12885C191.045 8.70311 196.529 17.2523 202.051 24.888C203.655 27.0891 205.287 29.268 206.923 31.4452C225.423 56.1548 225.423 56.1548 223.778 72.1668C219.681 87.393 201.767 95.7887 189.398 103.737C187.239 105.129 185.087 106.532 182.936 107.936C181.664 108.755 180.392 109.573 179.081 110.416C175.86 112.438 175.86 112.438 174.976 116.208C175.863 116.357 176.751 116.506 177.665 116.66C181.732 117.356 185.793 118.084 189.854 118.812C191.949 119.163 191.949 119.163 194.086 119.521C204.033 121.337 213.028 123.888 219.315 132.352C226.862 143.72 228.115 155.673 227.944 169.028C227.972 171.226 227.972 171.226 228 173.469C227.942 186.915 227.942 186.915 222.588 192.388C216.714 197.382 210.206 201.458 203.692 205.556C196.391 210.208 189.317 215.087 182.341 220.211C171.822 227.926 160.99 235.127 149.948 242.071C148.056 243.279 146.212 244.563 144.386 245.868C140.46 247.694 138.663 247.19 134.505 245.952C130.511 244.215 126.638 242.261 122.751 240.298C90.4139 224.404 58.7541 222.958 24.5316 234.323C21.4257 235.239 21.4257 235.239 17.8547 235.239C19.453 231.564 21.0691 229.458 24.2248 227.005C25.0318 226.376 25.8389 225.748 26.6705 225.101C27.542 224.445 28.4135 223.789 29.3115 223.113C30.2167 222.43 31.122 221.747 32.0548 221.043C54.1046 204.727 76.2983 195.773 103.923 195.411C105.733 195.38 107.542 195.332 109.35 195.265C120.86 194.846 130.323 196.12 141.156 200.178C142.241 200.572 143.326 200.966 144.444 201.371C147.087 202.332 149.725 203.305 152.36 204.291C152.26 182.625 152.147 160.959 152.017 139.293C151.958 129.234 151.902 119.174 151.858 109.115C151.818 100.349 151.771 91.5825 151.714 82.8163C151.683 78.1732 151.658 73.5302 151.641 68.887C151.626 64.5188 151.6 60.1509 151.565 55.7828C151.549 53.4111 151.545 51.0393 151.541 48.6675C151.528 47.2604 151.515 45.8534 151.501 44.4037C151.494 43.1781 151.488 41.9525 151.481 40.6897C151.379 37.3603 151.379 37.3603 148.789 34.0769C146.002 33.9315 146.002 33.9315 142.837 35.2672C137.455 41.4245 136.021 47.1767 136.176 55.1543C136.171 56.1427 136.167 57.131 136.162 58.1493C136.155 60.2782 136.162 62.4072 136.181 64.5361C136.212 67.9094 136.206 71.2809 136.191 74.6543C136.167 81.8103 136.19 88.9658 136.216 96.1217C136.241 104.426 136.247 112.73 136.215 121.034C136.212 124.351 136.237 127.667 136.264 130.984C136.261 133.023 136.256 135.061 136.251 137.1C136.266 138.016 136.281 138.933 136.297 139.877C136.228 147.359 133.656 151.524 128.526 156.753C118.03 165.4 106.506 172.439 94.9691 179.598C90.3408 182.498 85.7678 185.483 81.1968 188.472C78.5605 190.007 78.5605 190.007 76.1799 190.007C76.712 186.548 77.5598 185.005 79.7719 182.191C82.832 176.891 82.777 173.027 82.6868 167.027C82.6895 165.934 82.6923 164.842 82.6951 163.716C82.6982 161.352 82.6906 158.989 82.6734 156.626C82.6473 152.883 82.6518 149.141 82.6644 145.398C82.6902 136.105 82.6695 126.812 82.6388 117.518C82.6133 109.659 82.611 101.8 82.6423 93.941C82.6475 90.2574 82.6182 86.5751 82.5881 82.8916C82.5944 80.6286 82.6024 78.3657 82.6124 76.1027C82.5858 74.572 82.5858 74.572 82.5586 73.0103C82.6432 65.8967 84.1827 62.8711 89.2733 57.8831C103.074 44.8692 120.048 35.132 136.136 25.2533C141.09 22.1775 145.733 18.8898 150.351 15.3295C171.447 -0.924425 171.447 -0.924425 183.308 3.12885ZM161.882 50.7412C161.882 69.2029 161.882 87.6646 161.882 106.686C169.527 103.628 175.66 99.3841 181.001 93.0716C183.296 86.7989 182.995 82.7694 180.625 76.6397C176.033 66.9023 170.533 58.5864 163.072 50.7412C162.68 50.7412 162.287 50.7412 161.882 50.7412ZM161.882 128.111C161.772 138.407 161.687 148.702 161.635 158.998C161.611 163.779 161.577 168.559 161.523 173.34C161.471 177.955 161.443 182.57 161.43 187.186C161.422 188.945 161.404 190.704 161.379 192.463C161.344 194.931 161.339 197.397 161.342 199.866C161.331 201.269 161.32 202.673 161.31 204.119C162.006 208.675 163.35 210.633 166.643 213.814C170.978 214.874 170.978 214.874 174.976 215.004C175.114 205.019 175.219 195.034 175.284 185.049C175.315 180.412 175.357 175.775 175.425 171.139C175.489 166.662 175.525 162.187 175.54 157.71C175.551 156.004 175.573 154.298 175.605 152.592C175.648 150.199 175.65 147.805 175.651 145.412C175.664 144.051 175.678 142.689 175.691 141.287C174.566 135.541 170.754 133.116 166.42 129.525C164.361 127.894 164.361 127.894 161.882 128.111Z" fill="white"/>
<path d="M74.6919 0.00423506C76.921 0.00754358 76.921 0.00754358 79.1951 0.0109189C90.8501 0.241806 101.42 2.32565 112.62 5.41642C121.564 7.84658 128.884 8.70987 138.076 6.69972C136.435 10.6052 134.794 12.4504 131.269 14.7669C129.914 15.6721 129.914 15.6721 128.533 16.5956C127.558 17.2334 126.582 17.8713 125.578 18.5284C123.516 19.9053 121.456 21.2848 119.398 22.6666C118.347 23.3713 117.296 24.0759 116.213 24.802C111.349 28.1132 106.596 31.5725 101.846 35.044C94.7978 40.1885 87.6913 45.1327 80.3226 49.8112C76.8361 52.3149 74.1637 54.555 71.4185 57.883C70.8792 61.2654 70.6985 63.913 70.8036 67.277C70.8084 68.2049 70.8131 69.1328 70.818 70.0888C70.8313 72.0971 70.8579 74.1053 70.8963 76.1133C70.9542 79.2966 70.9709 82.4778 70.976 85.6616C70.9973 94.7097 71.0877 103.756 71.218 112.803C71.295 118.344 71.3197 123.884 71.3131 129.425C71.3213 131.531 71.3499 133.638 71.3994 135.743C71.7828 152.202 71.7828 152.202 67.9594 157.357C65.2302 159.514 62.6142 161.067 59.5155 162.63C57.6978 163.868 55.8931 165.126 54.1079 166.41C52.2673 167.658 50.4244 168.903 48.5795 170.144C40.6929 175.483 32.8814 180.901 25.2211 186.561C20.4906 190.007 20.4906 190.007 17.8546 190.007C18.353 186.021 19.4983 183.13 21.4502 179.684C24.0537 174.549 24.4443 170.419 24.3049 164.734C24.3019 163.805 24.2989 162.877 24.2958 161.921C24.287 159.922 24.2678 157.924 24.239 155.925C24.1961 152.757 24.1873 149.59 24.188 146.421C24.1849 137.419 24.1294 128.418 24.0311 119.417C23.9732 113.895 23.9616 108.374 23.9782 102.852C23.9751 100.756 23.9542 98.6597 23.9148 96.5638C23.6121 80.2486 23.6121 80.2486 26.9643 75.0901C29.3737 72.9303 31.6958 71.3525 34.519 69.7861C35.6129 68.9767 36.7068 68.1673 37.8339 67.3334C38.8129 66.6821 39.7919 66.0307 40.8006 65.3596C41.9031 64.6185 43.0055 63.8774 44.1414 63.1139C45.2623 62.3697 46.3831 61.6255 47.538 60.8588C54.0443 56.5212 60.5304 52.1665 66.8107 47.505C67.6724 46.8675 68.534 46.2299 69.4218 45.5731C71.6719 43.3489 72.1645 41.9288 72.6088 38.8381C58.755 27.2022 38.2717 28.0802 21.3076 28.9942C14.5732 29.621 8.62751 31.5046 2.38062 34.0768C1.59501 34.0768 0.80941 34.0768 0 34.0768C1.32754 30.0942 1.94184 29.6497 5.282 27.4092C6.14096 26.8308 6.99993 26.2523 7.88493 25.6563C8.81812 25.0472 9.75131 24.438 10.7128 23.8104C11.6728 23.1798 12.6329 22.5492 13.622 21.8994C19.986 17.7812 26.4397 13.8805 33.1055 10.2707C33.8566 9.85541 34.6076 9.44017 35.3815 9.01234C47.9662 2.42234 60.5643 -0.118656 74.6919 0.00423506Z" fill="white"/>
</svg>
