<svg width="390" height="311" viewBox="0 0 390 311" fill="none" xmlns="http://www.w3.org/2000/svg">
<g opacity="0.4">
<mask id="mask0_119_2504" style="mask-type:alpha" maskUnits="userSpaceOnUse" x="0" y="0" width="390" height="311">
<rect x="390" y="311" width="390" height="311" transform="rotate(180 390 311)" fill="#D9D9D9"/>
</mask>
<g mask="url(#mask0_119_2504)">
<mask id="mask1_119_2504" style="mask-type:luminance" maskUnits="userSpaceOnUse" x="-96" y="-81" width="657" height="522">
<path d="M-95.7269 338.702L333.351 440.004L560.724 20.7633L131.646 -80.5389L-95.7269 338.702Z" fill="white"/>
</mask>
<g mask="url(#mask1_119_2504)">
<path d="M420.662 -30.9183C407.528 -18.9236 395.018 -6.35093 383.206 6.72492C315.71 71.4641 245.024 45.2186 188.003 21.6857C177.378 17.3013 162.619 29.299 164.915 40.5455C176.592 97.7128 193.469 157.234 179.138 221.261C166.099 272.662 72.657 311.838 -19.6162 346.82" stroke="#8594A3" stroke-width="0.5" stroke-miterlimit="10"/>
<path d="M433.58 -26.3807C420.433 -14.4875 407.892 -2.02294 396.03 10.9407C328.361 75.4233 257.654 50.3733 200.735 28.6946C190.171 24.6704 175.87 36.3616 177.925 47.4331C188.611 105.003 205.477 164.949 190.047 229.419C189.001 233.499 187.369 237.578 185.197 241.54C161.728 285.808 69.793 324.251 -13.0598 355.67" stroke="#8594A3" stroke-width="0.5" stroke-miterlimit="10"/>
<path d="M446.498 -21.8439C433.35 -10.0109 420.79 2.38724 408.892 15.2802C341.098 79.5887 270.572 55.8561 213.937 36.0872C203.472 32.435 189.62 43.8454 191.368 54.7594C200.667 112.78 216.632 173.207 200.988 238.103C199.899 242.232 198.173 246.358 195.866 250.34C172.244 293.371 74.3802 334.611 -6.26285 365.31" stroke="#8594A3" stroke-width="0.5" stroke-miterlimit="10"/>
<path d="M459.065 -16.6598C445.9 -4.95526 433.311 7.3103 421.362 20.0692C353.473 83.9809 282.996 61.6025 226.484 43.732C216.102 40.4495 202.708 51.5407 204.189 62.2662C212.243 120.576 227.436 181.332 211.712 246.487C210.579 250.652 208.772 254.805 206.357 258.791C182.681 300.461 78.8087 344.313 0.292825 374.16" stroke="#8594A3" stroke-width="0.5" stroke-miterlimit="10"/>
<path d="M471.982 -12.124C458.797 -0.502966 446.174 11.682 434.182 24.3632C366.206 88.0558 295.936 67.1064 239.69 51.2731C229.431 48.3856 216.522 59.1832 217.711 69.7152C224.345 128.424 238.542 189.638 222.618 255.163C221.432 259.397 219.525 263.611 216.976 267.631C193.229 308.039 83.3966 354.687 7.08976 383.799" stroke="#8594A3" stroke-width="0.5" stroke-miterlimit="10"/>
<path d="M484.9 -7.58728C471.722 3.94281 459.083 16.0228 447.047 28.5898C379.056 91.9494 309.035 72.5432 253.126 58.6514C242.994 56.1347 230.547 66.6265 231.466 76.9592C236.712 135.951 249.89 197.52 233.847 263.309C232.587 267.601 230.572 271.864 227.893 275.905C204.175 314.985 88.3374 364.415 14.238 392.792" stroke="#8594A3" stroke-width="0.5" stroke-miterlimit="10"/>
<path d="M498.41 -2.90774C485.194 8.52967 472.507 20.5118 460.409 32.9786C392.228 95.9798 322.022 77.9835 266.113 66.0661C256.078 63.9274 244.105 74.0959 244.782 84.2125C248.751 143.575 261.036 205.57 245.038 271.636C243.743 275.981 241.638 280.286 238.827 284.336C215.169 322.131 92.9414 374.13 20.7936 401.641" stroke="#8594A3" stroke-width="0.5" stroke-miterlimit="10"/>
<path d="M511.327 1.63003C498.08 12.9632 485.353 24.8448 473.21 37.2143C404.882 99.8741 334.783 83.4273 278.983 73.4858C269.082 71.7219 257.597 81.5701 258.036 91.4568C260.686 151.132 272.165 213.497 255.967 279.805C254.618 284.209 252.416 288.56 249.482 292.625C225.947 329.132 97.4399 383.783 27.3498 410.492" stroke="#8594A3" stroke-width="0.5" stroke-miterlimit="10"/>
<path d="M524.838 6.30795C511.564 17.5596 498.797 29.3534 486.596 41.6339C418.135 104.025 348.116 89.2055 292.455 81.3148C282.709 79.9332 271.713 89.4788 271.911 99.1349C273.145 159.149 283.5 221.91 267.17 288.536C265.78 292.998 263.483 297.399 260.417 301.475C237.026 336.753 102.172 394.18 34.1468 420.13" stroke="#8594A3" stroke-width="0.5" stroke-miterlimit="10"/>
<path d="M537.404 11.4908C524.132 22.633 511.351 34.3124 499.12 46.4741C430.708 108.407 360.934 95.2676 305.552 89.4433C296.001 88.439 285.522 97.6503 285.495 107.037C285.315 167.232 294.574 230.232 278.154 296.991C276.715 301.5 274.336 305.938 271.169 310.025C248.008 343.956 107.079 403.937 41.295 429.123" stroke="#8594A3" stroke-width="0.5" stroke-miterlimit="10"/>
<path d="M550.322 16.0286C537.026 27.0763 524.217 38.6633 511.953 50.7369C443.425 112.29 373.724 100.815 318.491 97.056C309.133 96.4187 299.153 105.298 298.916 114.416C297.338 174.867 305.55 238.206 289.06 305.167C287.557 309.734 285.077 314.216 281.785 318.31C258.897 350.971 111.585 413.616 47.8506 437.973" stroke="#8594A3" stroke-width="0.5" stroke-miterlimit="10"/>
<path d="M563.832 20.7064C550.508 31.67 537.651 43.1646 525.318 55.1381C456.657 116.389 387.05 106.635 331.964 105C322.817 104.728 313.333 113.288 312.894 122.133C309.882 182.921 316.935 246.665 300.331 313.903C299.391 317.67 297.502 321.404 294.848 324.78C293.57 326.406 292.393 328.063 291.232 329.743C267.787 363.636 114.8 424.599 54.6479 447.611" stroke="#8594A3" stroke-width="0.5" stroke-miterlimit="10"/>
<path d="M576.75 25.2451C563.4 36.0971 550.515 47.4919 538.156 59.3743C469.39 120.242 399.873 112.254 344.915 112.709C336.002 112.783 327.009 121.009 326.386 129.564C321.94 190.607 327.884 254.655 311.193 322.057C310.263 325.82 308.35 329.547 305.658 332.891C304.24 334.65 302.921 336.466 301.606 338.277C277.612 371.332 119.143 434.312 61.2046 456.462" stroke="#8594A3" stroke-width="0.5" stroke-miterlimit="10"/>
<path d="M589.076 29.639C575.725 40.389 562.818 51.6702 550.412 63.431C481.719 123.959 412.644 117.843 358.099 120.489C349.482 120.907 341.006 128.8 340.197 137.049C334.186 198.295 338.756 262.611 321.905 330.156C320.977 333.93 319.034 337.667 316.299 340.997C314.767 342.863 313.319 344.815 311.865 346.725C287.309 378.98 123.957 444.112 68.3521 465.456" stroke="#8594A3" stroke-width="0.5" stroke-miterlimit="10"/>
<path d="M602.585 34.3174C589.182 45.0334 576.221 56.2856 563.76 68.0242C494.933 128.202 425.936 123.941 371.515 128.746C363.171 129.482 355.188 137.045 354.224 144.989C346.755 206.509 350.111 271.175 333.043 338.957C332.115 342.727 330.153 346.455 327.391 349.757C325.744 351.726 324.192 353.771 322.599 355.77C297.484 387.286 128.591 454.532 75.1489 475.094" stroke="#8594A3" stroke-width="0.5" stroke-miterlimit="10"/>
<path d="M614.801 40.1478C601.416 50.7103 588.459 61.8004 575.986 73.3724C507.142 132.989 438.223 130.554 383.928 137.516C375.882 138.548 368.405 145.753 367.316 153.358C358.511 214.934 360.722 279.793 343.778 347.547C342.865 351.305 340.889 355.018 338.102 358.283C336.336 360.354 334.667 362.493 332.921 364.577C307.175 395.307 133.014 464.274 81.7056 483.944" stroke="#8594A3" stroke-width="0.5" stroke-miterlimit="10"/>
<path d="M627.72 44.683C614.336 55.1439 601.374 66.137 588.888 77.6157C520.095 136.876 451.544 136.459 397.604 145.615C389.902 146.921 382.908 153.791 381.685 161.069C371.305 222.855 372.154 287.945 355.089 355.821C354.164 359.58 352.16 363.288 349.345 366.529C347.466 368.692 345.684 370.919 343.789 373.072C317.369 403.102 138.499 474.183 89.4459 493.079" stroke="#8594A3" stroke-width="0.5" stroke-miterlimit="10"/>
<path d="M641.229 49.3627C627.813 59.7356 614.803 70.6304 602.253 82.0033C533.267 140.843 464.705 142.33 410.807 153.684C403.431 155.238 396.899 161.762 395.578 168.705C383.785 230.698 383.439 296.072 366.359 364.079C365.438 367.844 363.411 371.554 360.563 374.776C358.56 377.042 356.647 379.37 354.586 381.595C327.357 410.996 143.007 483.872 96.0015 501.928" stroke="#8594A3" stroke-width="0.5" stroke-miterlimit="10"/>
<path d="M654.147 53.8985C640.718 64.1813 627.683 74.9821 615.094 86.2568C546.049 144.754 477.754 148.233 424.079 161.838C417.072 163.614 410.997 169.797 409.585 176.4C396.286 238.571 394.607 304.21 377.42 372.308C376.793 374.87 375.641 377.432 374.032 379.845C373.295 380.949 372.469 382.012 371.566 383.02C369.464 385.366 367.438 387.772 365.232 390.04C337.252 418.821 148.001 493.668 103.15 510.92" stroke="#8594A3" stroke-width="0.5" stroke-miterlimit="10"/>
<path d="M667.657 58.5786C654.176 68.7615 641.087 79.4686 628.441 90.656C559.238 148.75 490.868 154.323 437.241 170.189C430.593 172.157 424.945 178.006 423.462 184.272C408.693 246.696 405.735 312.68 388.448 380.984C387.813 383.586 386.627 386.189 384.966 388.63C384.232 389.707 383.413 390.742 382.52 391.723C380.302 394.159 378.132 396.657 375.761 398.971C346.83 427.205 152.236 503.936 109.354 520.417" stroke="#8594A3" stroke-width="0.5" stroke-miterlimit="10"/>
<path d="M680.574 63.1149C667.075 73.2132 653.958 83.8349 641.272 94.9391C571.991 152.732 503.856 160.425 450.42 178.622C444.173 180.749 438.948 186.261 437.398 192.181C421.006 254.802 416.668 321.169 399.298 389.615C398.654 392.26 397.435 394.905 395.721 397.375C394.994 398.423 394.185 399.43 393.305 400.383C390.969 402.914 388.637 405.512 386.097 407.867C356.162 435.621 156.893 514.367 116.151 530.056" stroke="#8594A3" stroke-width="0.5" stroke-miterlimit="10"/>
<path d="M693.493 67.652C679.992 77.6788 666.867 88.224 654.163 99.2473C584.804 156.585 516.764 166.423 463.47 186.893C457.607 189.146 452.788 194.331 451.207 199.91C433.408 262.729 427.666 329.285 410.248 397.79C409.593 400.474 408.343 403.156 406.583 405.652C405.853 406.687 405.043 407.68 404.163 408.619C401.736 411.211 399.267 413.876 396.588 416.238C365.715 443.445 161.415 523.973 122.708 538.907" stroke="#8594A3" stroke-width="0.5" stroke-miterlimit="10"/>
<path d="M707.003 72.3319C693.453 82.2354 680.268 92.6552 667.497 103.554C597.982 160.419 529.966 172.44 476.741 195.184C471.265 197.525 466.83 202.381 465.23 207.618C445.983 270.61 438.914 337.415 421.518 406.054C420.855 408.772 419.573 411.489 417.765 414.007C417.039 415.017 416.236 415.986 415.366 416.901C412.834 419.566 410.192 422.314 407.355 424.686C375.38 451.416 165.978 533.642 129.264 547.756" stroke="#8594A3" stroke-width="0.5" stroke-miterlimit="10"/>
<path d="M719.92 76.8707C706.307 86.6639 693.055 96.9825 680.216 107.789C610.556 164.22 542.615 178.452 489.505 203.496C484.43 205.888 480.365 210.416 478.757 215.308C458.003 278.453 449.582 345.502 432.14 414.183C431.462 416.937 430.144 419.687 428.286 422.224C427.565 423.207 426.77 424.149 425.911 425.04C423.27 427.777 420.434 430.609 417.439 432.984C384.291 459.276 169.982 543.166 135.227 556.465" stroke="#8594A3" stroke-width="0.5" stroke-miterlimit="10"/>
</g>
</g>
</g>
</svg>
